<svg width="76" height="77" viewBox="0 0 76 77" fill="none" xmlns="http://www.w3.org/2000/svg">
<g clip-path="url(#clip0_1168_430)">
<path d="M67.132 8.68411V1.43295C67.132 0.731401 66.5655 0.162598 65.8653 0.162598H25.332C24.6325 0.162598 24.0653 0.731401 24.0653 1.43295V8.73125L16.62 22.4204C16.5185 22.6071 16.4653 22.8161 16.4653 23.0289V49.7062H18.9987V23.3527L26.0847 10.3254H63.7315L57.1533 22.4204C57.0519 22.6071 56.9987 22.8161 56.9987 23.0289V68.7614H46.8653V71.3021H69.6653C73.1617 71.2978 75.995 68.4569 75.9987 64.9504V23.0289C75.998 22.7876 75.93 22.5513 75.8014 22.3466L67.132 8.68411ZM26.5987 7.78469V2.7033H64.5987V7.78469H26.5987ZM73.4653 64.9504C73.4653 67.055 71.7645 68.7614 69.6653 68.7614H59.532V23.3527L65.9494 11.5536L73.4653 23.3986V64.9504Z" fill="#5D62B5"/>
<path d="M18.2546 53.8502C17.6837 53.63 17.0776 53.5171 16.4659 53.5171C14.1564 53.5196 12.1402 55.0858 11.5606 57.3282H11.3992C8.60117 57.3282 6.33255 59.6034 6.33255 62.4096H5.06589C4.521 62.4102 4.03734 62.76 3.8654 63.2786L0.0653988 74.7117C-0.0632471 75.0988 0.00169436 75.5243 0.239194 75.8555C0.477313 76.1868 0.858921 76.3834 1.26589 76.3834H44.3326C44.7395 76.3834 45.1218 76.1868 45.3599 75.8555C45.5974 75.5243 45.6623 75.0988 45.5337 74.7117L41.7337 63.2786C41.5617 62.76 41.0781 62.4102 40.5326 62.4096H39.2659C39.2659 59.6034 36.9979 57.3282 34.1992 57.3282H34.0384C33.4589 55.0858 31.4426 53.5196 29.1326 53.5171C28.5215 53.5171 27.9154 53.63 27.3445 53.8502C26.5077 52.0942 24.7394 50.9771 22.7992 50.9771C20.859 50.9771 19.0914 52.0942 18.2546 53.8502V53.8502ZM39.6197 64.9503L42.5748 73.8427H3.02425L5.9794 64.9503H39.6197ZM25.306 55.8848C25.3394 56.3723 25.6486 56.7966 26.1007 56.9777C26.5528 57.1588 27.068 57.0639 27.4268 56.7339C28.1628 56.0454 29.2365 55.8624 30.158 56.2675C31.0796 56.6732 31.6727 57.5893 31.6659 58.5985C31.6659 59.3001 32.233 59.8689 32.9326 59.8689H34.1992C35.5989 59.8689 36.7326 61.0065 36.7326 62.4096H8.86589C8.86589 61.0065 10.0002 59.8689 11.3992 59.8689H12.6659C13.366 59.8689 13.9326 59.3001 13.9326 58.5985C13.9276 57.5906 14.5201 56.6756 15.4404 56.27C16.3607 55.8649 17.4338 56.0473 18.1698 56.7339C18.5286 57.0639 19.0438 57.1588 19.4959 56.9777C19.948 56.7966 20.2566 56.3723 20.29 55.8848C20.3741 54.5574 21.4726 53.5233 22.7992 53.5233C24.1259 53.5233 25.2243 54.5574 25.3091 55.8848H25.306Z" fill="#5D62B5"/>
<path d="M31.6655 30.6509H34.1989V33.1916H31.6655V30.6509Z" fill="#5D62B5"/>
<path d="M44.332 30.6509H46.8654V33.1916H44.332V30.6509Z" fill="#5D62B5"/>
<path d="M50.6326 15.7156L45.1268 20.4881H33.9903L28.0026 15.6852C27.4986 15.2802 26.7719 15.3211 26.3154 15.7789C24.8273 17.2688 24.0146 19.3065 24.0684 21.4142C24.1222 23.5225 25.037 25.5155 26.5987 26.9273V40.8137C26.5987 47.8298 32.2702 53.5172 39.2654 53.5172C46.2611 53.5172 51.932 47.8298 51.932 40.8137V27.0811C53.4424 25.6793 54.3466 23.7415 54.453 21.6809C54.5817 19.5267 53.8376 17.4109 52.391 15.813C51.9271 15.3106 51.149 15.2671 50.6326 15.7156V15.7156ZM26.608 21.511C26.5498 20.436 26.8275 19.3703 27.4033 18.4616L31.3085 21.5959L28.0899 24.8227C27.211 23.9357 26.684 22.7584 26.608 21.511ZM39.2654 50.9765C37.8923 50.9765 36.732 50.1037 36.732 49.0709C36.732 48.0382 37.8923 47.1654 39.2654 47.1654C40.6384 47.1654 41.7987 48.0382 41.7987 49.0709C41.7987 50.1037 40.6384 50.9765 39.2654 50.9765V50.9765ZM49.3987 40.8137C49.395 44.4678 47.435 47.8378 44.2665 49.6416C44.3023 49.453 44.3246 49.2626 44.332 49.0709C44.1434 46.4471 41.884 44.4641 39.2654 44.6247C36.6473 44.4641 34.3879 46.4471 34.1987 49.0709C34.2067 49.2626 34.229 49.453 34.2649 49.6416C31.0957 47.8378 29.1363 44.4678 29.132 40.8137V27.3658L33.4565 23.0288H45.0748L47.6082 25.5695H45.5987C42.1011 25.5695 39.2654 28.4135 39.2654 31.9212C39.2654 35.429 42.1011 38.273 45.5987 38.273H49.3987V40.8137ZM49.3987 35.7323H45.5987C43.5002 35.7323 41.7987 34.0259 41.7987 31.9212C41.7987 29.8166 43.5002 28.1102 45.5987 28.1102H49.3987V35.7323ZM50.5126 24.8897L47.4585 21.8273L51.2498 18.5392C51.7508 19.4559 51.9846 20.4962 51.9234 21.5401C51.8547 22.7869 51.3556 23.971 50.5126 24.8897V24.8897Z" fill="#5D62B5"/>
<path d="M69.6654 56.0581H63.3321C62.6326 56.0581 62.0654 56.6269 62.0654 57.3285V62.4099C62.0654 63.1114 62.6326 63.6802 63.3321 63.6802H69.6654C70.3656 63.6802 70.9321 63.1114 70.9321 62.4099V57.3285C70.9321 56.6269 70.3656 56.0581 69.6654 56.0581ZM68.3988 61.1395H64.5988V58.5988H68.3988V61.1395Z" fill="#5D62B5"/>
<path d="M62.0654 50.9766H68.3988V53.5173H62.0654V50.9766Z" fill="#5D62B5"/>
<path d="M62.0654 45.895H70.9321V48.4357H62.0654V45.895Z" fill="#5D62B5"/>
<path d="M46.8652 63.6802H54.4652V66.2209H46.8652V63.6802Z" fill="#5D62B5"/>
<path d="M46.8652 58.5986H54.4652V61.1393H46.8652V58.5986Z" fill="#5D62B5"/>
<path d="M62.0654 40.814H70.9321V43.3547H62.0654V40.814Z" fill="#5D62B5"/>
<path d="M62.0654 35.7324H65.8654V38.2731H62.0654V35.7324Z" fill="#5D62B5"/>
<path d="M68.3989 35.7324H70.9323V38.2731H68.3989V35.7324Z" fill="#5D62B5"/>
<path d="M62.0654 23.0288H70.9321V25.5695H62.0654V23.0288Z" fill="#5D62B5"/>
<path d="M62.0654 28.1104H70.9321V30.6511H62.0654V28.1104Z" fill="#5D62B5"/>
</g>
<defs>
<clipPath id="clip0_1168_430">
<rect width="76" height="76.2209" fill="white" transform="translate(0 0.162598)"/>
</clipPath>
</defs>
</svg>
