<svg width="76" height="77" viewBox="0 0 76 77" fill="none" xmlns="http://www.w3.org/2000/svg">
<g clip-path="url(#clip0_1168_301)">
<path d="M74.243 16.1675C73.8302 15.5039 73.1164 15.1079 72.3356 15.1079H57.9239C56.4992 6.63988 49.1541 0.162598 40.3112 0.162598C30.4506 0.162598 22.4289 8.20764 22.4289 18.0969C22.4289 26.5814 28.6013 31.4999 30.9245 33.3516C31.0869 33.4816 31.233 33.5967 31.3567 33.6968C31.2956 34.6817 31.0065 36.8876 29.6221 37.8606C28.6296 38.56 27.1096 38.563 25.1083 37.8636C23.3498 37.2493 21.6912 36.1688 20.1787 34.6503L11.3225 25.7683C10.6832 25.1302 9.81736 24.7984 8.90387 24.8657C8.0023 24.9329 7.17524 25.3902 6.6343 26.1226C4.33344 29.2401 0.61838 35.8594 1.56614 45.0313C1.57211 45.2869 1.73454 51.3831 4.01007 58.1906C7.08881 67.3999 12.5936 73.4184 19.9269 75.5959C21.7076 76.1265 23.6658 76.3835 25.913 76.3835H36.1327C40.7032 76.3835 45.1231 75.0564 48.9127 72.5471L49.2971 72.2915C59.9312 65.1208 63.7774 51.4115 58.2443 40.4028C56.6036 37.1387 54.3444 34.5382 51.5145 32.6581C52.0823 31.9467 52.7544 31.059 53.4488 30.0532H61.405C63.1709 30.0532 64.8056 29.5973 66.1349 28.738C70.1524 26.136 73.0106 21.1084 74.3578 18.342C74.6975 17.6411 74.6558 16.8281 74.243 16.1675ZM55.5843 41.7478C60.4423 51.4144 57.0253 63.4798 47.5834 69.845L47.2734 70.0527C43.9697 72.2392 40.1175 73.3945 36.1327 73.3945H25.913C23.9563 73.3945 22.2769 73.1763 20.7733 72.7309C5.27524 68.1278 4.5525 45.1942 4.53909 44.8445C3.68669 36.5558 6.98748 30.6704 9.03054 27.901L7.83242 27.0118L9.21532 27.8816L18.0716 36.7621C19.903 38.6019 21.9416 39.9215 24.1262 40.6852C27.0858 41.7194 29.5073 41.5909 31.3343 40.3056C34.0062 38.4255 34.3341 34.8043 34.3505 33.3426C34.3609 32.7493 34.1299 32.1948 33.7022 31.7838C33.5055 31.5955 33.1866 31.337 32.7768 31.0097C30.5713 29.2521 25.4078 25.1377 25.4078 18.0954C25.4078 9.85461 32.0928 3.15016 40.3098 3.15016C47.9679 3.15016 54.2893 8.97583 55.1149 16.4395L55.1417 16.7369C55.1819 17.1853 55.2117 17.6366 55.2117 18.0954C55.2117 18.5572 55.1551 19.043 55.0716 19.5377C55.0567 19.6273 55.0433 19.7155 55.0254 19.8067C54.8228 20.8528 54.4607 21.9558 53.9749 23.0797C53.9659 23.1006 53.957 23.1215 53.948 23.1425C53.4473 24.2888 52.8259 25.45 52.136 26.5829C52.0778 26.677 52.0152 26.7727 51.9556 26.8683C50.92 28.5347 49.7501 30.1309 48.6027 31.5043C48.2033 31.9811 48.0349 32.6058 48.1392 33.2171C48.245 33.8403 48.6206 34.3828 49.169 34.7086C51.8886 36.3212 54.0479 38.6885 55.5843 41.7478ZM64.5195 26.2257C63.6731 26.7742 62.5956 27.0641 61.405 27.0641H55.3265C55.5455 26.6755 55.7571 26.2795 55.9628 25.876C55.9851 25.8341 56.006 25.7923 56.0269 25.7504C56.1878 25.4321 56.3428 25.1093 56.4918 24.7835C56.5335 24.6908 56.5782 24.5981 56.6185 24.507C56.7347 24.2454 56.8435 23.9839 56.9493 23.7193C56.9985 23.5968 57.0521 23.4742 57.0983 23.3532C57.1818 23.135 57.2563 22.9153 57.3323 22.6956C57.3829 22.5461 57.441 22.3952 57.4872 22.2487C57.526 22.1292 57.5543 22.0081 57.5901 21.8871C57.748 21.3505 57.8792 20.8244 57.973 20.3133C57.9835 20.261 57.9969 20.2072 58.0058 20.1549C58.0505 19.8993 58.0789 19.6512 58.1072 19.4032C58.1191 19.306 58.137 19.2089 58.1459 19.1117C58.1772 18.768 58.1936 18.4287 58.1936 18.0984H71.1374C69.8976 20.4314 67.5312 24.2753 64.5195 26.2257Z" fill="#5D62B5"/>
<path d="M50.7423 15.1079C50.7423 10.9875 47.3998 7.63525 43.2913 7.63525C39.1828 7.63525 35.8403 10.9875 35.8403 15.1079C35.8403 19.2283 39.1828 22.5805 43.2913 22.5805C47.3998 22.5805 50.7423 19.2283 50.7423 15.1079ZM38.8207 15.1079C38.8207 12.6359 40.8265 10.6243 43.2913 10.6243C45.3478 10.6243 47.0675 12.0322 47.5861 13.9317C47.1882 13.7344 46.7456 13.6134 46.2717 13.6134C44.625 13.6134 43.2913 14.951 43.2913 16.6024C43.2913 17.7726 43.9679 18.774 44.9439 19.2657C44.4313 19.4704 43.8755 19.5915 43.2913 19.5915C40.8265 19.5915 38.8207 17.5798 38.8207 15.1079Z" fill="#5D62B5"/>
<path d="M40.1221 44.3319C37.7363 43.0362 34.8036 43.2558 31.3911 44.991C27.9189 46.759 23.9326 48.131 19.2057 49.1861L18.641 49.3117C17.9525 49.4656 17.3683 49.911 17.042 50.5342C16.7156 51.1529 16.6769 51.8793 16.9362 52.5294C18.1805 55.6679 22.9983 65.8935 32.7948 65.9398C32.9155 65.9488 33.145 65.9637 33.458 65.9637C34.9139 65.9637 38.1804 65.6633 40.8672 63.2437C43.4661 60.9017 44.7835 57.2835 44.7835 52.4905L44.7745 52.3306C44.7477 52.093 44.1054 46.499 40.1221 44.3319ZM38.8987 60.9974C36.4101 63.2616 33.0452 62.9597 33.0199 62.9597L32.8619 62.9507C25.4541 62.9507 21.374 55.3197 19.9762 52.0766C24.8968 50.9706 29.0738 49.5239 32.7427 47.6557C35.2164 46.3959 37.2192 46.1552 38.693 46.9533C41.1221 48.2655 41.7271 52.0317 41.8031 52.5817C41.7852 56.4271 40.8091 59.2578 38.8987 60.9974Z" fill="#5D62B5"/>
</g>
<defs>
<clipPath id="clip0_1168_301">
<rect width="76" height="76.2209" fill="white" transform="translate(0 0.162598)"/>
</clipPath>
</defs>
</svg>
