<svg width="76" height="77" viewBox="0 0 76 77" fill="none" xmlns="http://www.w3.org/2000/svg">
<g clip-path="url(#clip0_1168_399)">
<path d="M72.1998 0.162598H31.6665C31.4742 0.165986 31.2852 0.213804 31.1142 0.302336C21.0921 1.27429 13.2714 9.4262 12.6893 19.5075C12.5768 21.997 12.9203 24.4861 13.7026 26.8514C6.16084 27.1212 0.204053 33.3637 0.266507 40.932C0.328962 48.5002 6.38796 54.643 13.9332 54.7876H63.3332C66.1314 54.7876 68.3998 57.0626 68.3998 59.869C68.3998 62.6754 66.1314 64.9504 63.3332 64.9504H36.7332C36.7332 63.5472 35.599 62.4097 34.1998 62.4097H24.0665C22.6674 62.4097 21.5332 63.5472 21.5332 64.9504H18.4552C17.9422 64.9207 17.5045 64.5675 17.3658 64.0713C16.4508 61.5558 14.0697 59.8787 11.3998 59.869H6.33317C2.8371 59.8732 0.00402544 62.7145 -0.000162311 66.2207V72.4327C-0.024437 74.3291 1.30957 75.9704 3.1665 76.3289C3.37585 76.3639 3.58762 76.3821 3.79984 76.3835C4.80766 76.3835 5.77421 75.982 6.48684 75.2673C7.19948 74.5526 7.59984 73.5832 7.59984 72.5725V67.4911L10.2738 67.5368C10.9005 70.467 13.4784 72.5633 16.4665 72.5725H21.5332C21.5332 73.9757 22.6674 75.1132 24.0665 75.1132H34.1998C35.599 75.1132 36.7332 73.9757 36.7332 72.5725H63.3332C70.3288 72.5725 75.9998 66.8849 75.9998 59.869C75.9998 52.8531 70.3288 47.1655 63.3332 47.1655H13.9332C10.4354 47.1655 7.59984 44.3217 7.59984 40.8138C7.59984 37.3058 10.4354 34.462 13.9332 34.462H18.2196C18.236 34.4798 18.25 34.4989 18.2664 34.5166C22.0795 38.5555 27.3873 40.8344 32.9332 40.8138C41.7758 40.8138 47.9748 37.0675 52.075 34.5891L52.5817 34.2804C57.9118 31.0727 70.4683 23.3376 74.1885 21.0433C75.3174 20.3542 76.0044 19.123 75.9998 17.7976V3.97364C75.9998 1.86886 74.2985 0.162598 72.1998 0.162598V0.162598ZM16.4665 70.0318C14.6764 70.0268 13.1313 68.7722 12.7539 67.0172C12.5275 65.821 11.4866 64.954 10.2725 64.9504H7.59984C6.20072 64.9504 5.0665 66.0879 5.0665 67.4911V72.5725C5.06619 72.949 4.89934 73.306 4.61098 73.5471C4.32263 73.7882 3.94248 73.8886 3.5731 73.8212C2.94249 73.6636 2.50847 73.0841 2.53317 72.4327V66.2207C2.53317 64.116 4.23449 62.4097 6.33317 62.4097H11.3998C13.0018 62.4153 14.4308 63.421 14.9807 64.9301C15.4716 66.4425 16.8693 67.4728 18.4552 67.4911H21.5332V70.0318H16.4665ZM43.0665 2.7033V3.97364C43.0665 4.67524 42.4994 5.24399 41.7998 5.24399H34.1998C33.5003 5.24399 32.9332 4.67524 32.9332 3.97364V2.7287C33.113 2.7287 33.2891 2.7033 33.4702 2.7033H43.0665ZM24.0665 72.5725V64.9504H34.1998V72.5725H24.0665ZM13.9332 31.9213C9.03625 31.9213 5.0665 35.9026 5.0665 40.8138C5.0665 45.7249 9.03625 49.7062 13.9332 49.7062H63.3332C68.9297 49.7062 73.4665 54.2562 73.4665 59.869C73.4665 65.4818 68.9297 70.0318 63.3332 70.0318H36.7332V67.4911H63.3332C67.5305 67.4911 70.9332 64.0786 70.9332 59.869C70.9332 55.6594 67.5305 52.2469 63.3332 52.2469H13.9332C7.63713 52.2469 2.53317 47.1281 2.53317 40.8138C2.53317 34.4994 7.63713 29.3806 13.9332 29.3806H14.6995C15.1363 30.2634 15.6375 31.1127 16.1992 31.9213H13.9332ZM73.4665 17.7976C73.469 18.2382 73.2412 18.6479 72.8661 18.8774C69.1472 21.1716 56.6021 28.9004 51.2808 32.103L50.7678 32.4117C46.907 34.7466 41.0715 38.2731 32.9332 38.2731C28.0809 38.2732 23.4405 36.2793 20.0934 32.7559C16.7464 29.2325 14.9851 24.4876 15.2201 19.6269C15.7139 11.1721 22.0479 4.22121 30.3998 2.9688V3.97364C30.3998 6.07843 32.1012 7.78469 34.1998 7.78469H41.7998C43.8985 7.78469 45.5998 6.07843 45.5998 3.97364V2.7033H72.1998C72.8994 2.7033 73.4665 3.27205 73.4665 3.97364V17.7976Z" fill="#5D62B5"/>
<path d="M67.1333 5.24414H50.6667C48.568 5.24414 46.8667 6.9504 46.8667 9.05519V18.1649C46.8635 19.1766 47.2645 20.1474 47.9801 20.8605L50.972 23.8611C51.6885 24.5753 52.6585 24.9751 53.6687 24.9727C54.2938 24.9736 54.9093 24.8187 55.4598 24.5217L68.9345 17.2451C70.1658 16.5804 70.9335 15.2912 70.9333 13.8889V9.05519C70.9333 6.9504 69.232 5.24414 67.1333 5.24414V5.24414ZM68.4 13.8889C68.4002 14.3565 68.1443 14.7864 67.7337 15.008L54.2577 22.2846C53.7652 22.5474 53.1596 22.4583 52.763 22.0648L49.7712 19.0643C49.5333 18.8258 49.3998 18.5022 49.4 18.1649V9.05519C49.4 8.35359 49.9672 7.78484 50.6667 7.78484H67.1333C67.8329 7.78484 68.4 8.35359 68.4 9.05519V13.8889Z" fill="#5D62B5"/>
</g>
<defs>
<clipPath id="clip0_1168_399">
<rect width="76" height="76.2209" fill="white" transform="translate(0 0.162598)"/>
</clipPath>
</defs>
</svg>
