<svg width="76" height="77" viewBox="0 0 76 77" fill="none" xmlns="http://www.w3.org/2000/svg">
<path d="M26.6001 53.5171H19.0001C18.3006 53.5171 17.7334 54.0859 17.7334 54.7874V62.4095C17.7334 63.1111 18.3006 63.6799 19.0001 63.6799H26.6001C27.2996 63.6799 27.8667 63.1111 27.8667 62.4095V54.7874C27.8667 54.0859 27.2996 53.5171 26.6001 53.5171ZM25.3334 61.1392H20.2667V56.0578H25.3334V61.1392Z" fill="#5D62B5"/>
<path d="M44.3333 39.5435H31.6666C30.2676 39.5435 29.1333 40.6811 29.1333 42.0842V47.1656C29.1333 48.5686 30.2676 49.7062 31.6666 49.7062H44.3333C45.7323 49.7062 46.8666 48.5686 46.8666 47.1656V42.0842C46.8666 40.6811 45.7323 39.5435 44.3333 39.5435ZM44.3333 43.3545H39.2666V42.0842H44.3333V43.3545ZM36.7333 42.0842V43.3545H31.6666V42.0842H36.7333ZM31.6666 45.8952H36.7333V47.1656H31.6666V45.8952ZM39.2666 47.1656V45.8952H44.3333V47.1656H39.2666Z" fill="#5D62B5"/>
<path d="M69.5566 65.0377C69.2411 63.3672 68.2714 61.8928 66.8631 60.9456C65.4554 59.9978 63.7279 59.6554 62.0667 59.996V37.5285L64.3378 39.8062C65.8815 41.3545 68.3852 41.3545 69.9289 39.8062C71.4727 38.258 71.4727 35.7471 69.9289 34.1988L62.0667 26.3138V10.3252C63.4657 10.3252 64.6 9.18761 64.6 7.78452V5.24382C64.6 3.84073 63.4657 2.70312 62.0667 2.70312H49.4C48.001 2.70312 46.8667 3.84073 46.8667 5.24382V7.78452C46.8667 9.18761 48.001 10.3252 49.4 10.3252V13.6103L40.6867 4.87165C39.1832 3.43258 36.8168 3.43258 35.3133 4.87165L6.07109 34.1988C4.52734 35.7471 4.52734 38.258 6.07109 39.8062C7.61484 41.3545 10.1185 41.3545 11.6622 39.8062L13.9333 37.5285V64.1649C12.5541 62.5603 10.3232 61.9871 8.34466 62.7296C6.36549 63.4715 5.05739 65.372 5.06667 67.4909C2.26862 67.4909 0 69.7661 0 72.5723C0 73.2739 0.567155 73.8427 1.26667 73.8427H74.7333C75.4328 73.8427 76 73.2739 76 72.5723C75.9951 68.8121 73.2613 65.6152 69.5566 65.0377V65.0377ZM58.2568 62.4616C58.2568 62.4436 58.2667 62.4288 58.2667 62.4095V54.7874C58.2667 54.0859 57.6995 53.5171 57 53.5171H49.4C48.7005 53.5171 48.1333 54.0859 48.1333 54.7874V62.4095C48.1333 63.1111 48.7005 63.6799 49.4 63.6799H57C57.2307 63.6737 57.4552 63.603 57.6476 63.4752C57.227 64.3293 57.0056 65.2684 57 66.2206V66.3477C54.518 66.8632 52.5803 68.8115 52.0725 71.302H46.8667V52.2467C46.8667 51.5452 46.2995 50.9764 45.6 50.9764H30.4C29.7005 50.9764 29.1333 51.5452 29.1333 52.2467V71.302H21.4208C20.9563 68.5783 19.0618 66.3186 16.4667 65.3925V35.7322H59.5333V61.172C59.0478 61.538 58.618 61.9722 58.2568 62.4616ZM55.7333 56.0578V61.1392H50.6667V56.0578H55.7333ZM49.4 5.24382H62.0667V7.78452H49.4V5.24382ZM51.9333 10.3252H59.5333V23.7731L51.9333 16.151V10.3252ZM9.87109 38.0099C9.31631 38.5663 8.41702 38.5663 7.86224 38.0099C7.30745 37.4535 7.30745 36.5516 7.86224 35.9952L37.1044 6.668C37.5992 6.17177 38.4008 6.17177 38.8956 6.668L68.1378 35.9952C68.6925 36.5516 68.6925 37.4535 68.1378 38.0099C67.583 38.5663 66.6837 38.5663 66.1289 38.0099L40.6867 12.4937C39.203 11.0057 36.797 11.0057 35.3133 12.4937L9.87109 38.0099ZM37.1044 14.2901C37.5992 13.7939 38.4008 13.7939 38.8956 14.2901L57.7422 33.1915H18.2578L37.1044 14.2901ZM2.87412 71.302C3.54085 70.1501 4.98441 69.7134 6.175 70.3033C6.66175 70.544 7.24684 70.4472 7.63031 70.062C8.01439 69.6774 8.11087 69.0906 7.8709 68.6025C7.69648 68.2576 7.60371 67.8774 7.6 67.4909C7.59443 66.251 8.48506 65.1903 9.7041 64.9843C10.9231 64.7784 12.1113 65.488 12.5108 66.6616C12.6945 67.1895 13.201 67.5356 13.7583 67.5126C13.8177 67.5132 13.8764 67.5058 13.9333 67.4909C16.2428 67.4946 18.259 69.0602 18.8404 71.302H2.87412ZM31.6667 71.302V53.5171H44.3333V71.302H31.6667ZM54.6831 71.302C55.2027 69.8002 56.6035 68.7848 58.1881 68.7613C58.2314 68.7613 58.3576 68.7805 58.4009 68.7817C58.8017 68.7935 59.1851 68.6186 59.4393 68.3078C59.6917 67.9934 59.7795 67.5771 59.6762 67.1876C59.5865 66.8725 59.5389 66.5475 59.5333 66.2206C59.5333 64.1159 61.2348 62.4095 63.3333 62.4095C65.4319 62.4095 67.1333 64.1159 67.1333 66.2206C67.1333 66.9221 67.7005 67.4909 68.4 67.4909C70.7094 67.4946 72.7257 69.0602 73.3071 71.302H54.6831Z" fill="#5D62B5"/>
<path d="M35.4664 57.3281H32.9331V59.8688H34.1998V62.4095H32.9331V64.9502H35.4664C36.1659 64.9502 36.7331 64.3814 36.7331 63.6799V58.5985C36.7331 57.8969 36.1659 57.3281 35.4664 57.3281Z" fill="#5D62B5"/>
</svg>
