<svg width="63" height="63" viewBox="0 0 63 63" fill="none" xmlns="http://www.w3.org/2000/svg">
<path d="M59.846 23.9585V25.2258C59.846 29.2107 58.8625 33.1336 56.9832 36.6441C55.1039 40.1547 52.3874 43.1436 49.0762 45.344L38.2622 52.5299L34.3379 55.1373L31.3947 57.0938L30.4136 56.449L27.4704 54.5135L26.0601 53.5869L15.4852 46.636L14.0958 45.723L13.8125 45.536C10.4737 43.3411 7.73189 40.3468 5.83438 36.8232C3.93687 33.2997 2.94333 29.3576 2.94336 25.3526V22.5065C2.94344 19.3799 3.83213 16.3181 5.50521 13.6804C6.82453 11.5995 8.64583 9.88636 10.8004 8.6995C12.955 7.51265 15.3733 6.89049 17.8313 6.89063H18.2028C20.4711 6.89073 22.7081 7.42071 24.7369 8.43859C26.7656 9.45647 28.5303 10.9343 29.8912 12.755L31.3947 14.7656L32.8982 12.755C34.3446 10.8199 36.2458 9.27387 38.4323 8.25491C40.6187 7.23596 43.0225 6.77571 45.4293 6.91521C47.8361 7.0547 50.1711 7.7896 52.2261 9.05438C54.2811 10.3192 55.9922 12.0745 57.2069 14.1639C58.9346 17.1371 59.8453 20.5169 59.846 23.9585V23.9585Z" fill="#5D62B5"/>
<path d="M34.3379 46.7578V55.125V55.1373L38.2622 52.5299V43.6816L34.3379 46.7578Z" fill="#EA9D2D"/>
<path d="M44.1484 20.6719V23.1328C44.1484 23.456 44.0851 23.7761 43.9618 24.0747C43.8386 24.3733 43.658 24.6446 43.4302 24.8732C43.2024 25.1017 42.932 25.283 42.6344 25.4066C42.3368 25.5303 42.0178 25.5938 41.6957 25.5938H39.243V31.5L38.8839 32.4859L39.5054 33.4688L39.9837 37.0666C40.1013 37.9473 40.1383 38.837 40.094 39.7245C40.0104 41.4114 39.3653 43.0214 38.2619 44.2969L34.3375 47.25V55.1373L31.3943 57.0938L30.4132 56.449V49.2188L26.0597 53.5869L15.4849 46.636L23.5457 35.4375L25.5078 32.4844L28.077 29.9065L29.3761 29.5875L29.4321 28.5469V25.8054C29.4323 23.1484 30.4844 20.6003 32.357 18.7216C32.9973 18.0797 33.8653 17.7191 34.7705 17.7188H36.8945C37.7703 17.7189 38.6102 18.0681 39.2295 18.6896L41.2051 20.6719H44.1484Z" fill="#FBB540"/>
<path d="M35.3188 20.6719H37.281V22.6406H35.3188V20.6719Z" fill="#985713"/>
<path d="M39.506 33.4687H38.0908C36.1162 33.4661 34.1691 33.005 32.4018 32.1214L28.0776 29.9066L29.4328 28.5469V28.3906L33.2872 30.3643C34.7795 31.1099 36.4237 31.4986 38.0908 31.5H39.2436L39.506 33.4687Z" fill="#5D62B5"/>
<path d="M31.6389 29.5312H29.4326V27.5625H31.6389C31.8343 27.5623 32.0217 27.4843 32.1598 27.3456C32.298 27.207 32.3757 27.019 32.3759 26.823V23.625H34.338V26.823C34.3372 27.541 34.0526 28.2294 33.5466 28.7371C33.0406 29.2448 32.3545 29.5304 31.6389 29.5312V29.5312Z" fill="#985713"/>
<path d="M31.3946 35.4375V37.4062C31.3944 38.1894 31.0843 38.9404 30.5323 39.4942C29.9804 40.048 29.2319 40.3592 28.4514 40.3594V43.94C28.4518 44.8147 28.1935 45.6699 27.7094 46.3973L26.4892 48.2344V51.1875L26.8461 51.9036L27.1428 52.5004L27.4703 53.1562V54.5135L26.06 53.5869L15.4852 46.636L14.0957 45.723L19.6216 37.4062V34.3252C19.6216 34.2501 19.6229 34.1738 19.6253 34.0987C19.6874 32.6591 20.2319 31.2826 21.1705 30.192L22.5649 28.5469L23.546 32.4844H25.8952C26.3796 32.4844 26.8566 32.6044 27.2837 32.8339C27.7109 33.0634 28.0749 33.3952 28.3434 33.7997C28.6785 34.3035 29.1323 34.7165 29.6645 35.0022C30.1968 35.2878 30.791 35.4374 31.3946 35.4375Z" fill="#E4E4E2"/>
<path d="M24.5269 35.4375H26.489V37.4062H24.5269V35.4375Z" fill="#29C3BE"/>
</svg>
