<svg width="63" height="63" viewBox="0 0 63 63" fill="none" xmlns="http://www.w3.org/2000/svg">
<path d="M48.0728 54.1406V45.2812H53.9592V56.1094C53.9592 57.1537 53.5458 58.1552 52.8098 58.8936C52.0739 59.632 51.0757 60.0469 50.0349 60.0469H48.0728V54.1406Z" fill="#F6BB92"/>
<path d="M52.7019 39.375L53.6467 37.0417L54.4847 34.9721C54.9336 33.8593 55.0544 32.6324 54.8315 31.4477C54.6087 30.2631 54.0524 29.1745 53.2335 28.3208C52.1406 27.1813 51.5267 25.6359 51.5267 24.0246V18.375H26.9599V24.025C26.96 25.6364 26.346 27.1817 25.2531 28.3213C24.4342 29.1748 23.8779 30.2633 23.6549 31.4479C23.432 32.6324 23.5526 33.8593 24.0014 34.9721L24.8884 37.1715L52.7019 39.375Z" fill="#834B10"/>
<path d="M53.9593 40.441C53.9593 39.0428 53.465 37.6901 52.5643 36.6233C51.6636 35.5565 50.415 34.8449 49.0405 34.6151L48.0728 34.4532L43.0061 33.6059L39.2431 37.4064L35.4404 33.5767L28.4512 34.4532V60.047H48.0728V52.172C48.9602 51.2812 49.5205 50.1149 49.6622 48.8634C49.8039 47.6119 49.5187 46.3492 48.853 45.2814H53.9593V40.441Z" fill="#5D62B5"/>
<path d="M52.3242 23.625H26.1621V16.2132C26.1621 12.6094 27.5403 9.15319 29.9935 6.6049C32.4466 4.05661 35.7739 2.625 39.2432 2.625C42.7125 2.625 46.0397 4.05661 48.4929 6.6049C50.9461 9.15319 52.3242 12.6094 52.3242 16.2132V23.625Z" fill="#834B10"/>
<path d="M47.0917 16.7344V15.75L46.1106 10.8281H32.3755L31.3944 15.75V16.7344C30.6138 16.7344 29.8652 17.0455 29.3132 17.5993C28.7613 18.1531 28.4512 18.9043 28.4512 19.6875C28.4512 20.4707 28.7613 24.3837 29.3132 24.9375C29.8652 25.4913 29.5868 24.7763 30.3674 24.7763L30.0863 24.9375H31.3944C31.3944 26.765 33.099 27.2052 34.387 28.4974C35.6749 29.7897 37.4217 30.5156 39.2431 30.5156C41.0644 30.5156 42.8112 29.7897 44.0992 28.4974C45.3871 27.2052 46.1106 26.6038 46.1106 24.7763L47.0917 24.9375H48.3998C49.1804 24.9375 48.6209 25.3302 49.1729 24.7763C49.7248 24.2225 50.0349 20.4707 50.0349 19.6875C50.0349 18.9043 49.7248 18.1531 49.1729 17.5993C48.6209 17.0455 47.8723 16.7344 47.0917 16.7344Z" fill="#F6BB92"/>
<path d="M38.2622 41.1654V60.0469H16.3105C17.0424 58.9039 17.8942 57.8429 18.8515 56.8821L18.9239 56.8095C20.6781 55.0524 22.0813 52.975 23.0579 50.6892C23.443 49.7885 23.8268 48.8878 24.1065 48.2344C24.3603 47.6401 24.5271 47.25 24.5271 47.25H21.704C20.8291 47.2493 19.9794 46.9555 19.2898 46.4151C18.6002 45.8748 18.1102 45.1189 17.8974 44.2674L17.4143 42.3282L17.2879 41.8212C17.2156 41.531 17.2102 41.228 17.2721 40.9354C17.3339 40.6427 17.4614 40.3681 17.6449 40.1323C17.8284 39.8965 18.063 39.7057 18.3309 39.5745C18.5989 39.4433 18.8931 39.3751 19.1912 39.375H22.5649C23.1975 37.4691 24.4891 35.8532 26.206 34.8198L26.6352 34.5627C27.7386 33.8987 28.991 33.5246 30.2767 33.4749C31.5624 33.4252 32.8398 33.7016 33.9908 34.2784L34.0338 34.3006C35.3043 34.938 36.3729 35.9179 37.1197 37.1304C37.8666 38.3428 38.2622 39.74 38.2622 41.1654Z" fill="#4B4B4B"/>
<path d="M38.262 41.3438V44.1369C38.262 44.7567 38.0676 45.3608 37.7064 45.8636C37.3452 46.3664 36.8354 46.7425 36.2494 46.9384C35.6453 47.1405 34.9922 47.1405 34.3881 46.9384C33.802 46.7425 33.2923 46.3664 32.9311 45.8636C32.5699 45.3608 32.3755 44.7567 32.3755 44.1369V39.375H36.2998L38.262 41.3438Z" fill="black"/>
<path d="M29.1451 45.9778L27.1829 47.9465C26.9987 48.131 26.7491 48.2345 26.4888 48.2344H24.106C24.3599 47.6401 24.5267 47.2501 24.5267 47.2501H21.7036C20.7482 47.251 19.8255 46.9008 19.1099 46.2657H26.0829L27.7569 44.5849C27.9409 44.4002 28.1906 44.2964 28.451 44.2964C28.7113 44.2964 28.961 44.4002 29.1451 44.5849C29.3292 44.7696 29.4326 45.0201 29.4326 45.2813C29.4326 45.5425 29.3292 45.793 29.1451 45.9778V45.9778Z" fill="black"/>
<path d="M20.6029 39.375V40.5647C20.6029 41.0324 20.4177 41.4809 20.0881 41.8116C19.7585 42.1423 19.3115 42.3281 18.8454 42.3281H17.4144L17.2881 41.8212C17.2158 41.5309 17.2103 41.228 17.2722 40.9354C17.334 40.6427 17.4615 40.3681 17.645 40.1322C17.8285 39.8964 18.0631 39.7057 18.331 39.5745C18.599 39.4433 18.8932 39.375 19.1914 39.375H20.6029Z" fill="black"/>
<path d="M23.6459 57.6154C23.4637 57.6152 23.2852 57.5642 23.1304 57.4681C22.9755 57.3719 22.8503 57.2344 22.7689 57.0709C22.6875 56.9074 22.6531 56.7244 22.6695 56.5424C22.6859 56.3604 22.7525 56.1866 22.8617 56.0404C24.0319 54.4759 24.9425 52.732 25.5585 50.8762C25.5983 50.7524 25.6621 50.6377 25.7464 50.5388C25.8306 50.44 25.9335 50.3588 26.0492 50.3C26.1649 50.2413 26.291 50.2062 26.4203 50.1966C26.5496 50.1871 26.6795 50.2034 26.8025 50.2445C26.9255 50.2856 27.0392 50.3508 27.1369 50.4363C27.2346 50.5218 27.3145 50.6258 27.3719 50.7425C27.4293 50.8591 27.4631 50.986 27.4713 51.1158C27.4796 51.2457 27.4621 51.3758 27.4199 51.4988C26.7373 53.5554 25.7282 55.4879 24.4315 57.2216C24.3401 57.3441 24.2215 57.4434 24.0851 57.5118C23.9487 57.5801 23.7983 57.6156 23.6459 57.6154V57.6154Z" fill="black"/>
<path d="M31.3945 16.7344C32.3169 16.426 33.1611 15.9196 33.8685 15.2504C34.5759 14.5812 35.1294 13.7654 35.4905 12.8598L36.2999 10.8281L31.3945 9.84375V16.7344Z" fill="#834B10"/>
<path d="M36.2998 10.8281L36.4147 11.001C37.5865 12.7647 39.1742 14.2107 41.0367 15.2109C42.8993 16.2111 44.9792 16.7344 47.0917 16.7344V9.84375L36.2998 10.8281Z" fill="#834B10"/>
<path d="M35.2371 20.8359C35.9144 20.8359 36.4634 20.285 36.4634 19.6055C36.4634 18.9259 35.9144 18.375 35.2371 18.375C34.5598 18.375 34.0107 18.9259 34.0107 19.6055C34.0107 20.285 34.5598 20.8359 35.2371 20.8359Z" fill="black"/>
<path d="M40.4695 20.8359C41.1468 20.8359 41.6959 20.285 41.6959 19.6055C41.6959 18.9259 41.1468 18.375 40.4695 18.375C39.7922 18.375 39.2432 18.9259 39.2432 19.6055C39.2432 20.285 39.7922 20.8359 40.4695 20.8359Z" fill="black"/>
<path d="M45.1295 42.3281C44.8693 42.3281 44.6198 42.2244 44.4358 42.0398C44.2518 41.8552 44.1484 41.6048 44.1484 41.3438V34.4531C44.1484 34.1921 44.2518 33.9417 44.4358 33.7571C44.6198 33.5725 44.8693 33.4688 45.1295 33.4688C45.3897 33.4688 45.6393 33.5725 45.8232 33.7571C46.0072 33.9417 46.1106 34.1921 46.1106 34.4531V41.3438C46.1106 41.6048 46.0072 41.8552 45.8232 42.0398C45.6393 42.2244 45.3897 42.3281 45.1295 42.3281Z" fill="#C3C3C3"/>
<path d="M45.1298 47.25C46.7553 47.25 48.073 45.9278 48.073 44.2969C48.073 42.6659 46.7553 41.3438 45.1298 41.3438C43.5043 41.3438 42.1865 42.6659 42.1865 44.2969C42.1865 45.9278 43.5043 47.25 45.1298 47.25Z" fill="#E4E4E2"/>
<path d="M45.1295 45.2812C45.6714 45.2812 46.1106 44.8405 46.1106 44.2969C46.1106 43.7532 45.6714 43.3125 45.1295 43.3125C44.5877 43.3125 44.1484 43.7532 44.1484 44.2969C44.1484 44.8405 44.5877 45.2812 45.1295 45.2812Z" fill="#C3C3C3"/>
<path d="M49.054 60.0469H34.3378C33.5572 60.0469 32.8086 59.7357 32.2566 59.1819C31.7046 58.6281 31.3945 57.877 31.3945 57.0938C31.3945 56.3105 31.7046 55.5594 32.2566 55.0056C32.8086 54.4518 33.5572 54.1406 34.3378 54.1406H35.3189C35.3189 53.6185 35.5256 53.1177 35.8936 52.7485C36.2615 52.3793 36.7606 52.1719 37.281 52.1719H37.4494C37.9698 52.1719 38.4688 52.3793 38.8368 52.7485L40.2243 54.1406H49.054V60.0469Z" fill="#F6BB92"/>
<path d="M16.4195 55.4771C16.2745 55.7993 16.2006 56.1491 16.2027 56.5025C16.2048 56.856 16.2829 57.2049 16.4317 57.5253C16.5805 57.8457 16.7965 58.1301 17.0649 58.359C17.3333 58.588 17.6478 58.7561 17.9869 58.8519L21.7633 59.9225C22.5145 60.1354 23.3192 60.0403 24.0005 59.658C24.6817 59.2757 25.1837 58.6375 25.396 57.8838C25.6082 57.1302 25.5134 56.3228 25.1324 55.6393C24.7513 54.9558 24.1153 54.4522 23.3642 54.2392L22.4199 53.9715C22.49 53.7227 22.5106 53.4625 22.4805 53.2058C22.4503 52.949 22.3701 52.7007 22.2443 52.475C22.1185 52.2494 21.9497 52.0508 21.7474 51.8906C21.5451 51.7304 21.3134 51.6118 21.0654 51.5415L20.9034 51.4956C20.6555 51.4253 20.3961 51.4047 20.1402 51.4349C19.8843 51.4652 19.6368 51.5457 19.4119 51.6719C18.2997 52.2962 17.4164 53.2619 16.8919 54.4273L16.4195 55.4771Z" fill="#F6BB92"/>
<path d="M11.4113 23.625C12.3499 23.6251 13.2501 24.059 13.9139 24.8313L15.6971 26.9064L17.4801 24.8313C18.1439 24.059 19.0441 23.6251 19.9828 23.625C20.7722 23.625 21.5389 23.932 22.1611 24.4974C22.7833 25.0627 23.2253 25.8538 23.4167 26.745C23.6332 27.7525 23.5766 28.8133 23.2548 29.7821C22.933 30.7508 22.3616 31.58 21.619 32.1561L15.6973 36.75L9.77556 32.1561C9.03293 31.58 8.46154 30.7508 8.13972 29.7821C7.8179 28.8133 7.76137 27.7525 7.9779 26.745C8.1693 25.8539 8.61116 25.0628 9.23325 24.4975C9.85534 23.9322 10.622 23.6251 11.4113 23.625V23.625Z" fill="#5D62B5"/>
<path d="M31.3945 16.7344H32.3756V22.6406H31.3945V16.7344Z" fill="#EEB58E"/>
<path d="M46.1108 16.7344H47.0919V22.6406H46.1108V16.7344Z" fill="#EEB58E"/>
<path d="M35.4409 33.5765L39.2436 37.4062L43.0066 33.6058C42.7776 33.5675 42.5695 33.4489 42.4193 33.2711C42.2692 33.0933 42.1868 32.8679 42.1868 32.6349V29.5312H36.3003V32.5998C36.3003 32.8397 36.213 33.0714 36.0547 33.2512C35.8965 33.4311 35.6782 33.5468 35.4409 33.5765V33.5765Z" fill="#F6BB92"/>
<path d="M39.2432 31.5C36.4677 31.5 33.8059 30.532 31.8434 28.809C29.8809 27.0861 28.7783 24.7492 28.7783 22.3125V21H49.708V22.3125C49.708 24.7492 48.6055 27.0861 46.6429 28.809C44.6804 30.532 42.0186 31.5 39.2432 31.5Z" fill="#5D62B5"/>
<path d="M27.4703 41.3438C28.0122 41.3438 28.4514 40.903 28.4514 40.3594C28.4514 39.8157 28.0122 39.375 27.4703 39.375C26.9285 39.375 26.4893 39.8157 26.4893 40.3594C26.4893 40.903 26.9285 41.3438 27.4703 41.3438Z" fill="black"/>
</svg>
