<svg width="63" height="63" viewBox="0 0 63 63" fill="none" xmlns="http://www.w3.org/2000/svg">
<path d="M58.2727 5.25H4.6854C3.58927 5.25 2.70068 6.14543 2.70068 7.25V45.25C2.70068 46.3546 3.58927 47.25 4.6854 47.25H58.2727C59.3688 47.25 60.2574 46.3546 60.2574 45.25V7.25C60.2574 6.14543 59.3688 5.25 58.2727 5.25Z" fill="#5D62B5"/>
<path d="M27.5549 24.2812L21.6685 30.1875C21.4931 30.1001 21.323 30.0054 21.1583 29.9033C20.183 29.3093 19.3648 28.4882 18.7731 27.5095C18.1813 26.5309 17.8334 25.4235 17.7589 24.2812C17.749 24.1274 17.7441 23.9724 17.7441 23.8161V21.3281H23.6306L27.5549 24.2812Z" fill="#F3AF3E"/>
<path d="M25.5927 27.2344L23.14 28.7109L21.1582 29.9033C20.183 29.3093 19.3648 28.4882 18.773 27.5095C18.1812 26.5309 17.8333 25.4235 17.7588 24.2812H22.739L25.1095 26.7348L25.5927 27.2344Z" fill="#5B3726"/>
<path d="M45.2141 21.3281V23.8161C45.2141 23.9724 45.2092 24.1274 45.1994 24.2812C45.118 25.5224 44.7143 26.7206 44.0284 27.7567C43.3426 28.7928 42.3984 29.6309 41.2898 30.1875L35.4033 24.2812L39.3276 21.3281H45.2141Z" fill="#F3AF3E"/>
<path d="M45.1996 24.2812C45.1302 25.3459 44.8233 26.3812 44.3016 27.3109C43.7798 28.2405 43.0566 29.0407 42.1853 29.6522L39.3279 28.2187L37.3657 27.2344L37.8489 26.7348L40.2194 24.2812H45.1996Z" fill="#5B3726"/>
<path d="M42.2708 32.1562V44.9531H20.687V32.1562C20.687 29.2845 21.824 26.5303 23.8479 24.4996C25.8718 22.4689 28.6167 21.3281 31.4789 21.3281C34.3411 21.3281 37.086 22.4689 39.1099 24.4996C41.1338 26.5303 42.2708 29.2845 42.2708 32.1562V32.1562Z" fill="#F3AF3E"/>
<path d="M26.2651 28.2844L29.2094 27.3008L29.8294 29.1692L26.8852 30.1529L26.2651 28.2844Z" fill="#D18D28"/>
<path d="M33.1309 29.1364L33.7509 27.2679L36.6952 28.2515L36.0751 30.12L33.1309 29.1364Z" fill="#D18D28"/>
<path d="M37.5892 35.8858L36.7116 34.125C35.9341 34.5125 33.2926 36.6621 32.4608 36.4127V34.125H30.4987V36.4137C29.6668 36.6627 27.0242 34.5124 26.2467 34.125L25.3691 35.8858C26.0426 36.222 28.5263 38.4861 29.2778 38.5193C30.0293 38.5525 30.7794 38.4273 31.4797 38.1518C32.1801 38.4272 32.9302 38.5523 33.6817 38.519C34.4332 38.4857 36.9157 36.2221 37.5892 35.8858Z" fill="#744630"/>
<path d="M23.6302 42C23.6309 42.3456 23.5403 42.6852 23.3678 42.9844H20.687V39.0469C21.4676 39.0469 22.2162 39.358 22.7682 39.9118C23.3202 40.4656 23.6302 41.2168 23.6302 42Z" fill="#D18D28"/>
<path d="M42.2709 39.0469V42.9844H39.5901C39.4176 42.6852 39.327 42.3456 39.3276 42C39.3276 41.2168 39.6377 40.4656 40.1897 39.9118C40.7417 39.358 41.4903 39.0469 42.2709 39.0469Z" fill="#D18D28"/>
<path d="M20.687 43.9688H18.7249C18.2045 43.9688 17.7054 43.7613 17.3374 43.3921C16.9694 43.0229 16.7627 42.5221 16.7627 42C16.7627 41.2168 17.0728 40.4656 17.6248 39.9118C18.1767 39.358 18.9253 39.0469 19.7059 39.0469C20.4865 39.0469 21.2352 39.358 21.7871 39.9118C22.3391 40.4656 22.6492 41.2168 22.6492 42C22.6492 42.5221 22.4424 43.0229 22.0745 43.3921C21.7065 43.7613 21.2074 43.9688 20.687 43.9688Z" fill="#F3AF3E"/>
<path d="M44.2329 43.9688H42.2708C41.7504 43.9688 41.2513 43.7613 40.8833 43.3921C40.5153 43.0229 40.3086 42.5221 40.3086 42C40.3086 41.2168 40.6187 40.4656 41.1707 39.9118C41.7226 39.358 42.4712 39.0469 43.2518 39.0469C44.0324 39.0469 44.7811 39.358 45.333 39.9118C45.885 40.4656 46.1951 41.2168 46.1951 42C46.1951 42.5221 45.9884 43.0229 45.6204 43.3921C45.2524 43.7613 44.7533 43.9688 44.2329 43.9688Z" fill="#F3AF3E"/>
<path d="M31.4792 35.1094C30.9589 35.1094 30.4598 34.902 30.0918 34.5327C29.7238 34.1635 29.5171 33.6628 29.5171 33.1406V31.1719H33.4414V33.1406C33.4414 33.6628 33.2347 34.1635 32.8667 34.5327C32.4987 34.902 31.9996 35.1094 31.4792 35.1094Z" fill="#5B3726"/>
<path d="M40.3089 53.4844H22.6494L22.8174 53.3158C24.5935 51.5325 25.5916 49.1148 25.5927 46.5938H37.3656C37.3658 49.115 38.364 51.533 40.1408 53.3158L40.3089 53.4844Z" fill="#D9D9D9"/>
<path d="M58.2727 47.25H4.6854C4.15902 47.25 3.6542 47.0288 3.28199 46.6349C2.90979 46.2411 2.70068 45.707 2.70068 45.15V42H60.2574V45.15C60.2574 45.707 60.0483 46.2411 59.6761 46.6349C59.3039 47.0288 58.7991 47.25 58.2727 47.25Z" fill="#E4E4E2"/>
<path d="M22.6492 53.4844H40.3086C40.829 53.4844 41.3281 53.6918 41.6961 54.061C42.0641 54.4302 42.2708 54.931 42.2708 55.4531V57.4219H20.687V55.4531C20.687 54.931 20.8937 54.4302 21.2617 54.061C21.6297 53.6918 22.1288 53.4844 22.6492 53.4844V53.4844Z" fill="#E4E4E2"/>
<path d="M37.5712 48.5625H25.3862C25.5233 47.9153 25.5924 47.2554 25.5923 46.5938H37.3652C37.3651 47.2554 37.4342 47.9153 37.5712 48.5625V48.5625Z" fill="#A8A8A8"/>
<ellipse cx="55.0249" cy="10.5" rx="2.61621" ry="2.625" fill="#62B58F"/>
</svg>
